# AST/ASF file generated using VICON BodyLanguage
# -----------------------------------------------
:version 1.10
:name VICON
:units
  mass 1.0
  length 0.45
  angle deg
:documentation
   .ast/.asf automatically generated from VICON data using
   VICON BodyBuilder and BodyLanguage model FoxedUp or BRILLIANT.MOD
:root
   order TX TY TZ RX RY RZ
   axis XYZ
   position 0 0 0  
   orientation 0 0 0 
:bonedata
  begin
     id 1 
     name lhipjoint
     direction 0.584852 -0.759097 0.285867 
     length 2.43633 
     axis 0 0 0  XYZ
  end
  begin
     id 2 
     name lfemur
     direction 0.34202 -0.939693 0  
     length 7.14704  
     axis 0 0 20  XYZ
    dof rx ry rz
    limits (-160.0 20.0)
           (-70.0 70.0)
           (-60.0 70.0)
  end
  begin
     id 3 
     name ltibia
     direction 0.342022 -0.939692 0   
     length 7.68483   
     axis 0 0 20   XYZ
    dof rx
    limits (-10.0 170.0)
  end
  begin
     id 4 
     name lfoot
     direction 0.0999605 -0.274639 0.956337   
     length 2.40452   
     axis -90 7.62852e-016 20   XYZ
    dof rx rz
    limits (-45.0 90.0)
           (-70.0 20.0)
  end
  begin
     id 5 
     name ltoes
     direction 1.53468e-011 -4.21881e-011 1   
     length 1.19837   
     axis -90 7.62852e-016 20   XYZ
    dof rx
    limits (-90.0 20.0)
  end
  begin
     id 6 
     name rhipjoint
     direction -0.569886 -0.769002 0.289597   
     length 2.40495  
     axis 0 0 0  XYZ 
  end
  begin
     id 7 
     name rfemur
     direction -0.34202 -0.939693 0   
     length 7.45086   
     axis 0 0 -20   XYZ
    dof rx ry rz
    limits (-160.0 20.0)
           (-70.0 70.0)
           (-70.0 60.0)
  end
  begin
     id 8 
     name rtibia
     direction -0.34202 -0.939693 0   
     length 7.76831   
     axis 0 0 -20   XYZ
    dof rx
    limits (-10.0 170.0)
 end
 begin
     id 9 
     name rfoot
     direction -0.0798572 -0.219406 0.97236   
     length 2.35911  
     axis -90 -7.62852e-016 -20   XYZ
    dof rx rz
    limits (-45.0 90.0)
           (-20.0 70.0)
  end
  begin
     id 10 
     name rtoes
     direction -1.53469e-011 -4.21728e-011 1   
     length 1.18261   
     axis -90 -7.62852e-016 -20   XYZ
    dof rx
    limits (-90.0 20.0)
  end
  begin
     id 11 
     name lowerback
     direction 0.0242088 0.999437 0.0232389   
     length 2.1561   
     axis 0 0 0   XYZ
    dof rx ry rz
    limits (-20.0 45.0)
           (-30.0 30.0)
           (-30.0 30.0)
  end
  begin
     id 12 
     name upperback
     direction -0.0356893 0.999013 -0.0264323   
     length 2.14431   
     axis 0 0 0   XYZ
    dof rx ry rz
    limits (-20.0 45.0)
           (-30.0 30.0)
           (-30.0 30.0)
  end
  begin
     id 13 
     name thorax
     direction -0.0472163 0.998194 -0.0371284   
     length 2.16169   
     axis 0 0 0   XYZ
    dof rx ry rz
    limits (-20.0 45.0)
           (-30.0 30.0)
           (-30.0 30.0)
  end
  begin
     id 14 
     name lowerneck
     direction 0.00863244 0.999921 0.00911972   
     length 1.58651   
     axis 0 0 0   XYZ
    dof rx ry rz
    limits (-20.0 45.0)
           (-30.0 30.0)
           (-30.0 30.0)
  end
  begin
     id 15 
     name upperneck
     direction 0.149523 0.979068 -0.138086   
     length 1.57486   
     axis 0 0 0   XYZ
    dof rx ry rz
    limits (-20.0 45.0)
           (-30.0 30.0)
           (-30.0 30.0)
  end
  begin
     id 16
     name head
     direction 0.0445219 0.997708 -0.0509576  
     length 1.6019  
     axis 0 0 0   XYZ
    dof rx ry rz
    limits (-20.0 45.0)
           (-30.0 30.0)
           (-30.0 30.0)
  end
  begin
     id 17 
     name lclavicle
     direction 0.911271 0.381667 -0.154644  
     length 3.80848  
     axis 0 0 0   XYZ
    dof ry rz
    limits (-20.0 10.0)
           (0.0 20.0)
  end
  begin
     id 18 
     name lhumerus
     direction 1 -4.49003e-011 2.1308e-027   
     length 5.19069   
     axis 180 -30 -90   XYZ
    dof rx ry rz
    limits (-60.0 90.0)
           (-90.0 90.0)
           (-90.0 90.0)
  end
  begin
     id 19
     name lradius
     direction 1 -4.48914e-011 4.01554e-027   
     length 3.30016   
     axis 180 -30 -90   XYZ
    dof rx
    limits (-10.0 170.0)
  end
  begin
     id 20
     name lwrist
     direction 1 -4.49003e-011 1.1934e-026   
     length 1.65008   
     axis -8.46377e-015 90 90   XYZ
    dof ry
    limits (-180.0 0.0)
 end
  begin
     id 21 
     name lhand
     direction 1 -4.49034e-011 2.38659e-026   
     length 0.707698   
     axis -1.52313e-014 90 90   XYZ
    dof rx rz
    limits (-90.0 90.0)
           (-45.0 45.0)
  end
  begin
     id 22 
     name lfingers
     direction 1 -4.48691e-011 4.77775e-026   
     length 0.570564   
     axis -3.04623e-014 90 90   XYZ
    dof rx
    limits (0.0 90.0)
  end
  begin
     id 23
     name lthumb
     direction 0.707107 -6.34832e-011 0.707107   
     length 0.819219   
     axis -90 45 -1.62303e-014   XYZ
    dof rx rz
    limits (-45.0 45.0)
           (-45.0 45.0)
  end
  begin
     id 24 
     name rclavicle
     direction -0.815579 0.573708 -0.0754329   
     length 3.54371  
     axis 0 0 0   XYZ 
    dof ry rz
    limits (-10.0 20.0)
           (-20.0 0.0)
  end
  begin
     id 25 
     name rhumerus
     direction -1 -4.48956e-011 3.05351e-028  
     length 5.23924   
     axis 180 30 90   XYZ
    dof rx ry rz
    limits (-90.0 60.0)
           (-90.0 90.0)
           (-90.0 90.0)
  end
  begin
     id 26 
     name rradius
     direction -1 -4.49013e-011 3.53849e-027   
     length 3.32953   
     axis 180 30 90   XYZ
    dof rx
    limits (-10.0 170.0)
  end
  begin
     id 27 
     name rwrist
     direction -1 -4.48901e-011 1.19374e-026   
     length 1.66477   
     axis -8.46377e-015 -90 -90   XYZ
    dof ry
    limits (-180.0 0.0)
  end
  begin
     id 28
     name rhand
     direction -1 -4.48877e-011 2.38764e-026   
     length 0.607414   
     axis -1.52313e-014 -90 -90   XYZ
    dof rx rz
    limits (-90.0 90.0)
           (-45.0 45.0)
  end
  begin
     id 29
     name rfingers
     direction -1 -4.48882e-011 4.77521e-026   
     length 0.489712   
     axis -3.04623e-014 -90 -90   XYZ
    dof rx
    limits (0.0 90.0)
  end
  begin
     id 30
     name rthumb
     direction -0.707107 -6.34974e-011 0.707107   
     length 0.703132   
     axis -90 -45 1.62303e-014   XYZ
    dof rx rz
    limits (-45.0 45.0)
           (-45.0 45.0)
  end
:hierarchy
  begin
    root lhipjoint rhipjoint lowerback
    lhipjoint lfemur
    lfemur ltibia
    ltibia lfoot
    lfoot ltoes
    rhipjoint rfemur
    rfemur rtibia
    rtibia rfoot
    rfoot rtoes
    lowerback upperback
    upperback thorax
    thorax lowerneck lclavicle rclavicle
    lowerneck upperneck
    upperneck head
    lclavicle lhumerus
    lhumerus lradius
    lradius lwrist
    lwrist lhand lthumb
    lhand lfingers
    rclavicle rhumerus
    rhumerus rradius
    rradius rwrist
    rwrist rhand rthumb
    rhand rfingers
  end

#!OML:ASF E:\VariousWalksJay\Project 1\Capture day 1\Session 1\Actor2.ASF
:FULLY-SPECIFIED
:DEGREES
217
root 15.66 17.5406 -29.1637 4.66153 -5.99615 -5.37545
lowerback -4.97183 0.512392 3.87193
upperback 2.12886 0.460979 -1.03406
thorax 5.04416 0.37333 -3.20789
lowerneck -9.98547 -4.68864 -4.61227
upperneck 9.86149 -6.94572 10.5739
head 5.1453 -2.92952 3.51925
rclavicle 1.32192e-014 7.95139e-015
rhumerus -35.5988 28.8587 -91.974
rradius 45.3091
rwrist -7.77311
rhand -5.22026 -8.5221
rfingers 7.12502
rthumb 20.5818 -37.451
lclavicle 1.32192e-014 7.95139e-015
lhumerus -54.3697 -51.0024 90.3644
lradius 52.059
lwrist 23.7741
lhand -6.25922 -2.6917
lfingers 7.12502
lthumb 19.5832 26.342
rfemur -13.3978 -6.37889 26.5574
rtibia 33.1857
rfoot -26.2703 -6.18266
rtoes -3.27992
lfemur -14.9228 5.80393 -15.5941
ltibia 34.5464
lfoot -23.4318 9.93403
ltoes -5.32245
218
root 15.674 17.54 -29.1632 4.76746 -5.94808 -5.46344
lowerback -4.96181 0.490955 3.84304
upperback 2.08163 0.435876 -1.04472
thorax 4.98655 0.358124 -3.20508
lowerneck -9.98703 -4.68577 -4.62954
upperneck 9.83234 -6.95212 10.6916
head 5.14235 -2.92689 3.55857
rclavicle -1.60022e-014 1.35174e-014
rhumerus -35.6098 28.9074 -92.0281
rradius 45.4194
rwrist -7.75881
rhand -5.17328 -8.53098
rfingers 7.12502
rthumb 20.6269 -37.455
lclavicle -1.60022e-014 1.35174e-014
lhumerus -55.3209 -51.85 90.9964
lradius 52.2646
lwrist 24.0572
lhand -5.85026 -2.33763
lfingers 7.12502
lthumb 19.9763 26.6556
rfemur -13.5079 -6.33847 26.6123
rtibia 33.2007
rfoot -26.3092 -6.22743
rtoes -3.58514
lfemur -15.0853 5.85654 -15.5517
ltibia 34.6356
lfoot -23.5238 9.90596
ltoes -5.36223
219
root 15.6892 17.5385 -29.1629 4.86942 -5.91363 -5.56298
lowerback -4.94611 0.470212 3.83216
upperback 2.03865 0.410581 -1.0554
thorax 4.93039 0.343517 -3.21244
lowerneck -9.98183 -4.67721 -4.64868
upperneck 9.79589 -6.95111 10.8184
head 5.13583 -2.92061 3.6018
rclavicle 1.2921e-015 1.74931e-014
rhumerus -35.6264 28.9199 -92.0877
rradius 45.527
rwrist -7.72136
rhand -5.127 -8.53657
rfingers 7.12502
rthumb 20.6714 -37.4557
lclavicle 1.2921e-015 1.74931e-014
lhumerus -56.2674 -52.6376 91.6293
lradius 52.4873
lwrist 24.2985
lhand -5.11186 -1.84049
lfingers 7.12502
lthumb 20.6859 27.0771
rfemur -13.6243 -6.26318 26.6766
rtibia 33.2383
rfoot -26.3522 -6.30023
rtoes -3.91555
lfemur -15.2457 5.91549 -15.5016
ltibia 34.7362
lfoot -23.633 9.89607
ltoes -5.40808
220
root 15.7056 17.536 -29.1627 4.96652 -5.89979 -5.67355
lowerback -4.91221 0.452752 3.83768
upperback 1.99528 0.389232 -1.06618
thorax 4.86403 0.331162 -3.22878
lowerneck -9.98174 -4.66298 -4.66425
upperneck 9.76206 -6.94405 10.9531
head 5.13071 -2.91055 3.64742
rclavicle -1.799e-014 1.98785e-014
rhumerus -35.6549 28.8926 -92.1536
rradius 45.6324
rwrist -7.64084
rhand -5.07422 -8.52846
rfingers 7.12502
rthumb 20.7221 -37.4421
lclavicle -1.799e-014 1.98785e-014
lhumerus -57.2027 -53.3708 92.2655
lradius 52.7164
lwrist 24.4999
lhand -4.20743 -1.33275
lfingers 7.12502
lthumb 21.5548 27.4878
rfemur -13.7466 -6.14436 26.7482
rtibia 33.3033
rfoot -26.3991 -6.40527
rtoes -4.29604
lfemur -15.3994 5.98081 -15.4452
ltibia 34.8464
lfoot -23.7616 9.90684
ltoes -5.45478
221
root 15.7232 17.5322 -29.1627 5.0546 -5.91693 -5.79377
lowerback -4.853 0.43869 3.85221
upperback 1.95024 0.37266 -1.07377
thorax 4.78204 0.321025 -3.24642
lowerneck -9.98475 -4.64115 -4.67457
upperneck 9.73635 -6.92797 11.0871
head 5.12766 -2.89564 3.69267
rclavicle 9.64106e-015 0
rhumerus -35.6963 28.8356 -92.2238
rradius 45.7342
rwrist -7.49679
rhand -5.03019 -8.50499
rfingers 7.12502
rthumb 20.7644 -37.414
lclavicle 9.64106e-015 0
lhumerus -58.1276 -54.0294 92.9046
lradius 52.9538
lwrist 24.6344
lhand -3.27392 -0.89053
lfingers 7.12502
lthumb 22.4511 27.8245
rfemur -13.8737 -5.96927 26.8246
rtibia 33.4023
rfoot -26.4523 -6.54945
rtoes -4.75703
lfemur -15.5395 6.05934 -15.3841
ltibia 34.9653
lfoot -23.9043 9.9405
ltoes -5.52039
222
root 15.742 17.5271 -29.1628 5.12935 -5.96537 -5.92554
lowerback -4.78911 0.427596 3.8816
upperback 1.91771 0.359064 -1.08063
thorax 4.7109 0.313222 -3.2714
lowerneck -9.97286 -4.60738 -4.68144
upperneck 9.69498 -6.89672 11.2352
head 5.11642 -2.87332 3.74339
rclavicle -7.05686e-015 -2.06736e-014
rhumerus -35.7237 28.749 -92.2934
rradius 45.8218
rwrist -7.27434
rhand -4.99604 -8.47087
rfingers 7.12502
rthumb 20.7972 -37.3763
lclavicle -7.05686e-015 -2.06736e-014
lhumerus -58.9994 -54.6144 93.5131
lradius 53.1891
lwrist 24.709
lhand -2.35795 -0.51934
lfingers 7.12502
lthumb 23.33 28.0869
rfemur -14.0054 -5.72703 26.908
rtibia 33.5443
rfoot -26.5129 -6.74707
rtoes -5.34735
lfemur -15.662 6.1552 -15.3151
ltibia 35.0933
lfoot -24.0602 9.98991
ltoes -5.59421
223
root 15.7622 17.5205 -29.1632 5.18845 -6.05581 -6.06176
lowerback -4.71903 0.421345 3.91614
upperback 1.89685 0.351739 -1.08759
thorax 4.64905 0.309055 -3.29884
lowerneck -9.93849 -4.56142 -4.68166
upperneck 9.63166 -6.84939 11.3935
head 5.0934 -2.84372 3.79799
rclavicle 1.14301e-014 -1.03368e-014
rhumerus -35.7344 28.6275 -92.3607
rradius 45.8868
rwrist -6.95922
rhand -4.98867 -8.41588
rfingers 7.12502
rthumb 20.8043 -37.3205
lclavicle 1.14301e-014 -1.03368e-014
lhumerus -59.8078 -55.1221 94.0894
lradius 53.4114
lwrist 24.7241
lhand -1.54466 -0.264873
lfingers 7.12502
lthumb 24.1101 28.2402
rfemur -14.1466 -5.40817 26.9887
rtibia 33.7436
rfoot -26.585 -6.99748
rtoes -6.09068
lfemur -15.7623 6.27658 -15.2469
ltibia 35.2306
lfoot -24.2325 10.0506
ltoes -5.66958
224
root 15.7834 17.5122 -29.164 5.22899 -6.19775 -6.20277
lowerback -4.62526 0.41981 3.9519
upperback 1.88088 0.351523 -1.09354
thorax 4.5795 0.308322 -3.3253
lowerneck -9.88101 -4.50074 -4.67938
upperneck 9.56025 -6.78358 11.5653
head 5.06276 -2.80533 3.85839
rclavicle 6.75868e-015 -1.27222e-014
rhumerus -35.7337 28.4597 -92.4275
rradius 45.9235
rwrist -6.54922
rhand -5.00522 -8.35444
rfingers 7.12502
rthumb 20.7884 -37.2608
lclavicle 6.75868e-015 -1.27222e-014
lhumerus -60.5597 -55.5424 94.6398
lradius 53.6111
lwrist 24.6782
lhand -0.968747 -0.188107
lfingers 7.12502
lthumb 24.6622 28.2427
rfemur -14.306 -4.99062 27.0682
rtibia 34.0205
rfoot -26.6695 -7.31716
rtoes -7.03234
lfemur -15.8367 6.42951 -15.1778
ltibia 35.3783
lfoot -24.4255 10.1158
ltoes -5.72076
225
root 15.8057 17.5022 -29.1656 5.24995 -6.40339 -6.33835
lowerback -4.51095 0.427454 3.98156
upperback 1.88693 0.36481 -1.10547
thorax 4.5225 0.314839 -3.35345
lowerneck -9.85669 -4.433 -4.66411
upperneck 9.4903 -6.71043 11.746
head 5.03745 -2.76132 3.91947
rclavicle -1.13307e-014 2.3059e-014
rhumerus -35.6773 28.225 -92.4733
rradius 45.929
rwrist -6.05665
rhand -5.04632 -8.26673
rfingers 7.12502
rthumb 20.7489 -37.1774
lclavicle -1.13307e-014 2.3059e-014
lhumerus -61.1796 -55.8848 95.1058
lradius 53.7722
lwrist 24.5798
lhand -0.535791 -0.209763
lfingers 7.12502
lthumb 25.0771 28.1637
rfemur -14.4999 -4.46617 27.1344
rtibia 34.4037
rfoot -26.7623 -7.71188
rtoes -8.20973
lfemur -15.8826 6.62028 -15.1201
ltibia 35.5349
lfoot -24.642 10.1884
ltoes -5.73088
226
root 15.829 17.4904 -29.1681 5.2524 -6.67878 -6.45471
lowerback -4.35799 0.43929 3.98465
upperback 1.877 0.387339 -1.12159
thorax 4.42745 0.324105 -3.37029
lowerneck -9.7619 -4.34555 -4.65693
upperneck 9.41176 -6.61167 11.944
head 4.99602 -2.7069 3.9906
rclavicle -7.95139e-016 1.11319e-014
rhumerus -35.6464 27.9099 -92.5297
rradius 45.9032
rwrist -5.49945
rhand -5.11116 -8.17191
rfingers 7.12502
rthumb 20.6866 -37.0894
lclavicle -7.95139e-016 1.11319e-014
lhumerus -61.7743 -56.1159 95.5767
lradius 53.886
lwrist 24.4306
lhand -0.369551 -0.398204
lfingers 7.12502
lthumb 25.2364 27.9529
rfemur -14.7518 -3.82991 27.1721
rtibia 34.9282
rfoot -26.8583 -8.18263
rtoes -9.61955
lfemur -15.9029 6.86125 -15.0892
ltibia 35.6987
lfoot -24.882 10.261
ltoes -5.68766
227
root 15.853 17.4769 -29.172 5.23793 -7.03183 -6.53682
lowerback -4.18354 0.46029 3.94934
upperback 1.88297 0.425604 -1.15205
thorax 4.33794 0.340714 -3.37929
lowerneck -9.69249 -4.24971 -4.6396
upperneck 9.33742 -6.50394 12.153
head 4.95936 -2.64629 4.06378
rclavicle -5.76476e-015 1.43125e-014
rhumerus -35.5612 27.4796 -92.5602
rradius 45.8419
rwrist -4.90593
rhand -5.20466 -8.05764
rfingers 7.12502
rthumb 20.5968 -36.9849
lclavicle -5.76476e-015 1.43125e-014
lhumerus -62.2191 -56.2588 95.9516
lradius 53.9342
lwrist 24.2515
lhand -0.212967 -0.609827
lfingers 7.12502
lthumb 25.3864 27.7201
rfemur -15.088 -3.07854 27.1646
rtibia 35.6323
rfoot -26.9387 -8.7233
rtoes -11.246
lfemur -15.8998 7.1582 -15.1016
ltibia 35.8666
lfoot -25.1431 10.3347
ltoes -5.58718
